{
	"asset":{
		"generator":"Khronos glTF Blender I/O v3.5.30",
		"version":"2.0"
	},
	"extensionsUsed":[
		"KHR_materials_specular",
		"KHR_materials_transmission",
		"KHR_materials_ior"
	],
	"scene":0,
	"scenes":[
		{
			"name":"Scene",
			"nodes":[
				5,
				6
			]
		}
	],
	"nodes":[
		{
			"mesh":0,
			"name":"Object_2",
			"scale":[
				0.030000001192092896,
				0.030000001192092896,
				0.030000004917383194
			],
			"translation":[
				-0.15261410176753998,
				-0.08447063714265823,
				0.5182445645332336
			]
		},
		{
			"mesh":1,
			"name":"Object_3",
			"scale":[
				0.030000001192092896,
				0.030000001192092896,
				0.030000004917383194
			],
			"translation":[
				-0.15261410176753998,
				-0.08447063714265823,
				0.5182445645332336
			]
		},
		{
			"mesh":2,
			"name":"Object_4",
			"scale":[
				0.030000001192092896,
				0.030000001192092896,
				0.030000004917383194
			],
			"translation":[
				-0.15261410176753998,
				-0.08447063714265823,
				0.5182445645332336
			]
		},
		{
			"mesh":3,
			"name":"Object_5",
			"scale":[
				0.030000001192092896,
				0.030000001192092896,
				0.030000004917383194
			],
			"translation":[
				-0.15261410176753998,
				-0.08447063714265823,
				0.5182445645332336
			]
		},
		{
			"children":[
				0,
				1,
				2,
				3
			],
			"name":"Candle.obj.cleaner.materialmerger.gles"
		},
		{
			"children":[
				4
			],
			"name":"Sketchfab_model",
			"rotation":[
				-0.001446171198040247,
				0,
				-0.9999990463256836,
				3.2111446062401756e-19
			],
			"scale":[
				0.032574620097875595,
				0.032574620097875595,
				0.032574612647295
			],
			"translation":[
				0.026677828282117844,
				-0.0037949495017528534,
				-0.029455699026584625
			]
		},
		{
			"mesh":4,
			"name":"fire",
			"rotation":[
				0,
				-0.9999990463256836,
				0,
				0.0014462904073297977
			],
			"scale":[
				0.00010437393939355388,
				0.00010437385935802013,
				0.00010437393939355388
			],
			"translation":[
				0.03145764395594597,
				0.041953861713409424,
				0.006855212152004242
			]
		}
	],
	"animations":[
		{
			"channels":[
				{
					"sampler":0,
					"target":{
						"node":6,
						"path":"translation"
					}
				},
				{
					"sampler":1,
					"target":{
						"node":6,
						"path":"scale"
					}
				},
				{
					"sampler":2,
					"target":{
						"node":6,
						"path":"rotation"
					}
				}
			],
			"name":"Object.1Action",
			"samplers":[
				{
					"input":21,
					"interpolation":"LINEAR",
					"output":22
				},
				{
					"input":21,
					"interpolation":"LINEAR",
					"output":23
				},
				{
					"input":21,
					"interpolation":"LINEAR",
					"output":24
				}
			]
		}
	],
	"materials":[
		{
			"doubleSided":true,
			"name":"Copper_-_Raw",
			"pbrMetallicRoughness":{
				"baseColorFactor":[
					0,
					0,
					0,
					1
				],
				"metallicFactor":0
			}
		},
		{
			"doubleSided":true,
			"name":"ABS_White",
			"pbrMetallicRoughness":{
				"metallicFactor":0
			}
		},
		{
			"doubleSided":true,
			"extensions":{
				"KHR_materials_specular":{
					"specularColorFactor":[
						0.9999999999999999,
						0.9999999999999999,
						0.9999999999999999
					]
				}
			},
			"name":"Aluminum_-_Satin",
			"pbrMetallicRoughness":{
				"baseColorFactor":[
					0.46189361810684204,
					0.46189361810684204,
					0.46189361810684204,
					1
				],
				"metallicFactor":0.4380314350128174,
				"roughnessFactor":0
			}
		},
		{
			"alphaMode":"BLEND",
			"doubleSided":true,
			"emissiveFactor":[
				0.05977528184317471,
				0.05977528184317471,
				0.05977528184317471
			],
			"extensions":{
				"KHR_materials_transmission":{
					"transmissionFactor":0.4021739065647125
				},
				"KHR_materials_specular":{
					"specularColorFactor":[
						0.4386896742369321,
						0.4386896742369321,
						0.4386896742369321
					]
				},
				"KHR_materials_ior":{
					"ior":5.799999713897705
				}
			},
			"name":"Glass_-_Frosted_Light",
			"pbrMetallicRoughness":{
				"baseColorFactor":[
					0.9647060036659241,
					0.9647060036659241,
					0.9529410004615784,
					0.41689059138298035
				],
				"metallicFactor":0
			}
		},
		{
			"doubleSided":true,
			"name":"Material Fire",
			"pbrMetallicRoughness":{
				"baseColorFactor":[
					1,
					0,
					0,
					1
				]
			}
		}
	],
	"meshes":[
		{
			"name":"Object_0",
			"primitives":[
				{
					"attributes":{
						"POSITION":0,
						"TEXCOORD_0":1,
						"NORMAL":2
					},
					"indices":3,
					"material":0
				}
			]
		},
		{
			"name":"Object_1",
			"primitives":[
				{
					"attributes":{
						"POSITION":4,
						"TEXCOORD_0":5,
						"NORMAL":6
					},
					"indices":7,
					"material":1
				}
			]
		},
		{
			"name":"Object_2",
			"primitives":[
				{
					"attributes":{
						"POSITION":8,
						"TEXCOORD_0":9,
						"NORMAL":10
					},
					"indices":11,
					"material":2
				}
			]
		},
		{
			"name":"Object_3",
			"primitives":[
				{
					"attributes":{
						"POSITION":12,
						"TEXCOORD_0":13,
						"NORMAL":14
					},
					"indices":15,
					"material":3
				}
			]
		},
		{
			"name":"Object.1",
			"primitives":[
				{
					"attributes":{
						"COLOR_0":16,
						"POSITION":17,
						"TEXCOORD_0":18,
						"NORMAL":19
					},
					"indices":20,
					"material":4
				}
			]
		}
	],
	"accessors":[
		{
			"bufferView":0,
			"componentType":5126,
			"count":276,
			"max":[
				1.9842289686203003,
				-27,
				21.74605369567871
			],
			"min":[
				-2,
				-46,
				17.75394630432129
			],
			"type":"VEC3"
		},
		{
			"bufferView":1,
			"componentType":5126,
			"count":276,
			"type":"VEC2"
		},
		{
			"bufferView":2,
			"componentType":5126,
			"count":276,
			"type":"VEC3"
		},
		{
			"bufferView":3,
			"componentType":5123,
			"count":1026,
			"type":"SCALAR"
		},
		{
			"bufferView":4,
			"componentType":5126,
			"count":4943,
			"max":[
				47.5,
				10,
				67.5
			],
			"min":[
				-47.5,
				-67.5,
				-67.5
			],
			"type":"VEC3"
		},
		{
			"bufferView":5,
			"componentType":5126,
			"count":4943,
			"type":"VEC2"
		},
		{
			"bufferView":6,
			"componentType":5126,
			"count":4943,
			"type":"VEC3"
		},
		{
			"bufferView":7,
			"componentType":5123,
			"count":15594,
			"type":"SCALAR"
		},
		{
			"bufferView":8,
			"componentType":5126,
			"count":548,
			"max":[
				5.75,
				-31,
				25.48392105102539
			],
			"min":[
				-5.75,
				-52,
				14.016077995300293
			],
			"type":"VEC3"
		},
		{
			"bufferView":9,
			"componentType":5126,
			"count":548,
			"type":"VEC2"
		},
		{
			"bufferView":10,
			"componentType":5126,
			"count":548,
			"type":"VEC3"
		},
		{
			"bufferView":11,
			"componentType":5123,
			"count":1620,
			"type":"SCALAR"
		},
		{
			"bufferView":12,
			"componentType":5126,
			"count":349,
			"max":[
				42.8586540222168,
				-33,
				62.6086540222168
			],
			"min":[
				-42.8586540222168,
				-138,
				-23.108652114868164
			],
			"type":"VEC3"
		},
		{
			"bufferView":13,
			"componentType":5126,
			"count":349,
			"type":"VEC2"
		},
		{
			"bufferView":14,
			"componentType":5126,
			"count":349,
			"type":"VEC3"
		},
		{
			"bufferView":15,
			"componentType":5123,
			"count":1044,
			"type":"SCALAR"
		},
		{
			"bufferView":16,
			"componentType":5126,
			"count":846,
			"type":"VEC4"
		},
		{
			"bufferView":17,
			"componentType":5126,
			"count":846,
			"max":[
				8.215752601623535,
				18.835403442382812,
				7.534440994262695
			],
			"min":[
				-9.006579399108887,
				-18.83429718017578,
				-7.799738883972168
			],
			"type":"VEC3"
		},
		{
			"bufferView":18,
			"componentType":5126,
			"count":846,
			"type":"VEC2"
		},
		{
			"bufferView":19,
			"componentType":5126,
			"count":846,
			"type":"VEC3"
		},
		{
			"bufferView":20,
			"componentType":5123,
			"count":858,
			"type":"SCALAR"
		},
		{
			"bufferView":21,
			"componentType":5126,
			"count":50,
			"max":[
				2.0833333333333335
			],
			"min":[
				0.041666666666666664
			],
			"type":"SCALAR"
		},
		{
			"bufferView":22,
			"componentType":5126,
			"count":50,
			"type":"VEC3"
		},
		{
			"bufferView":23,
			"componentType":5126,
			"count":50,
			"type":"VEC3"
		},
		{
			"bufferView":24,
			"componentType":5126,
			"count":50,
			"type":"VEC4"
		}
	],
	"bufferViews":[
		{
			"buffer":0,
			"byteLength":3312,
			"byteOffset":0,
			"target":34962
		},
		{
			"buffer":0,
			"byteLength":2208,
			"byteOffset":3312,
			"target":34962
		},
		{
			"buffer":0,
			"byteLength":3312,
			"byteOffset":5520,
			"target":34962
		},
		{
			"buffer":0,
			"byteLength":2052,
			"byteOffset":8832,
			"target":34963
		},
		{
			"buffer":0,
			"byteLength":59316,
			"byteOffset":10884,
			"target":34962
		},
		{
			"buffer":0,
			"byteLength":39544,
			"byteOffset":70200,
			"target":34962
		},
		{
			"buffer":0,
			"byteLength":59316,
			"byteOffset":109744,
			"target":34962
		},
		{
			"buffer":0,
			"byteLength":31188,
			"byteOffset":169060,
			"target":34963
		},
		{
			"buffer":0,
			"byteLength":6576,
			"byteOffset":200248,
			"target":34962
		},
		{
			"buffer":0,
			"byteLength":4384,
			"byteOffset":206824,
			"target":34962
		},
		{
			"buffer":0,
			"byteLength":6576,
			"byteOffset":211208,
			"target":34962
		},
		{
			"buffer":0,
			"byteLength":3240,
			"byteOffset":217784,
			"target":34963
		},
		{
			"buffer":0,
			"byteLength":4188,
			"byteOffset":221024,
			"target":34962
		},
		{
			"buffer":0,
			"byteLength":2792,
			"byteOffset":225212,
			"target":34962
		},
		{
			"buffer":0,
			"byteLength":4188,
			"byteOffset":228004,
			"target":34962
		},
		{
			"buffer":0,
			"byteLength":2088,
			"byteOffset":232192,
			"target":34963
		},
		{
			"buffer":0,
			"byteLength":13536,
			"byteOffset":234280,
			"target":34962
		},
		{
			"buffer":0,
			"byteLength":10152,
			"byteOffset":247816,
			"target":34962
		},
		{
			"buffer":0,
			"byteLength":6768,
			"byteOffset":257968,
			"target":34962
		},
		{
			"buffer":0,
			"byteLength":10152,
			"byteOffset":264736,
			"target":34962
		},
		{
			"buffer":0,
			"byteLength":1716,
			"byteOffset":274888,
			"target":34963
		},
		{
			"buffer":0,
			"byteLength":200,
			"byteOffset":276604
		},
		{
			"buffer":0,
			"byteLength":600,
			"byteOffset":276804
		},
		{
			"buffer":0,
			"byteLength":600,
			"byteOffset":277404
		},
		{
			"buffer":0,
			"byteLength":800,
			"byteOffset":278004
		}
	],
	"buffers":[
		{
			"byteLength":278804,
			"uri":"data:application/octet-stream;base64,"
		}
	]
}
