<svg id="Layer_1" data-name="Layer 1" xmlns="http://www.w3.org/2000/svg" viewBox="0 0 566.9 566.9"><defs><style>.cls-1{fill:#1c1d22;}.cls-2{fill:#9d9eee;}</style></defs><rect class="cls-1" width="566.9" height="566.93"/><path class="cls-2" d="M2624.4,303.5c0-56.4,38.4-96.7,91.5-96.7,46.3,0,74.2,26.8,75,70.4h-31.5c-1.1-26.9-17-42.5-44.3-42.5-34.5,0-57.8,27.1-57.8,67.9,0,45.2,26,74,66.3,74,26.2,0,49.8-9.9,66.5-28.2l.3,34.2c-17.8,14.8-40.8,22.4-67.4,22.4C2664.1,405,2624.4,364,2624.4,303.5Z" transform="translate(-2457.8)"/><path class="cls-2" d="M2857.7,237.7v51.8H2939v27.4h-81.3v57.2h95v27.6H2826.8V210.1h125.9v27.6Z" transform="translate(-2457.8)"/><path class="cls-2" d="M2529.3,475.2c0-21.8,14.8-37.3,35.3-37.3,17.9,0,28.7,10.3,29,27.1h-12.2c-.4-10.3-6.5-16.3-17.1-16.3-13.3,0-22.3,10.4-22.3,26.2,0,17.4,10,28.5,25.6,28.5,10.1,0,19.2-3.8,25.7-10.9v13.2c-6.9,5.7-15.8,8.7-26,8.7C2544.6,514.4,2529.3,498.5,2529.3,475.2Z" transform="translate(-2457.8)"/><path class="cls-2" d="M2652.6,496.2h-34.3l-7.9,16.9h-13l36.9-74h3l36.9,74h-13.7Zm-4.7-9.9-12.5-26.7L2623,486.3Z" transform="translate(-2457.8)"/><path class="cls-2" d="M2748.7,439.1v74h-4.3l-48.1-55.5v55.5h-12v-74h10.8l41.6,48.1V439.1Z" transform="translate(-2457.8)"/><path class="cls-2" d="M2832.2,476.1c0,22-14.9,37-39.3,37h-27.3v-74h27.3C2817.3,439.1,2832.2,454.2,2832.2,476.1Zm-12.7,0c0-15.9-10.4-26.4-26.9-26.4h-14.7v52.9h14.7C2809.1,502.6,2819.5,492.1,2819.5,476.1Z" transform="translate(-2457.8)"/><path class="cls-2" d="M2894,502.2v10.9h-48.6v-74h12.3v63.1Z" transform="translate(-2457.8)"/><path class="cls-2" d="M2916.5,449.8v20h31.4v10.6h-31.4v22h36.7v10.7h-48.6v-74h48.6v10.7Z" transform="translate(-2457.8)"/><path class="cls-2" d="M2551.2,76c-1,1.4-1.7,3.2-2.8,4.6-6.5,9.1-16.2,18.8-17.4,30.4-.8,7-.3,13.6,2.8,20a32.4,32.4,0,0,0,13.6,14.5,33.3,33.3,0,0,0,29.8,1.1,33.8,33.8,0,0,0,11-8.1,33.2,33.2,0,0,0,6.9-11.9,28.2,28.2,0,0,0,1.5-7,45.1,45.1,0,0,0-.1-9,47.1,47.1,0,0,0-1.7-9.1c-2.7-8.4-8.2-14.9-14.7-20.7a163.5,163.5,0,0,1-13.6-12.7,57.5,57.5,0,0,1-5.6-7.4c-1.7-2.6-2.7-5.5-4.1-8.2-1.2,2.1-1.2,5.4-1.4,7.8a30.8,30.8,0,0,0,1.4,13.5,41.4,41.4,0,0,0,3.1,5.9c1.1,1.9,2.4,3.6,3.5,5.5a8.1,8.1,0,0,1,1.3,4.5c-.2,3.2-2.9,6.7-6.1,6.9s-5.7-1.9-7.1-4.7a10.2,10.2,0,0,1-1-3.8C2550,84,2551.4,79.9,2551.2,76Z" transform="translate(-2457.8)"/><path class="cls-2" d="M2534.1,264.3V192.5c2.3,1.5,28.1,17,28.1,17v54.7Z" transform="translate(-2457.8)"/><path class="cls-2" d="M2564.9,329V268.8l28.5-25.3v60.2Z" transform="translate(-2457.8)"/><path class="cls-2" d="M2563.6,157.2c.9,2.3,29.8,66.7,29.8,66.7l-59.3-35.4Z" transform="translate(-2457.8)"/><path class="cls-2" d="M2534.1,314.1V268.9h28.1V331Z" transform="translate(-2457.8)"/><path class="cls-2" d="M2564.9,372.3V335.2l28.5-25.3v62.2Z" transform="translate(-2457.8)"/><polygon class="cls-2" points="135.6 237.4 107.1 262.7 107.1 210.8 135.6 227.9 135.6 237.4"/><polygon class="cls-2" points="76.3 377 76.3 319.4 104.4 336.4 104.4 394 76.3 377"/><path class="cls-2" d="M2593.4,399.6h-28.5V376.8h28.5Z" transform="translate(-2457.8)"/><path class="cls-2" d="M2562.2,399.6h-28.1V382.4Z" transform="translate(-2457.8)"/></svg>